<?xml version="1.0" encoding="utf-8"?>
<!-- Generator: Adobe Illustrator 23.0.3, SVG Export Plug-In . SVG Version: 6.00 Build 0)  -->
<svg version="1.1" id="Layer_1" xmlns="http://www.w3.org/2000/svg" xmlns:xlink="http://www.w3.org/1999/xlink" x="0px" y="0px"
	 viewBox="0 0 1750 300" style="enable-background:new 0 0 1750 300;" xml:space="preserve">
<style type="text/css">
	.st0{fill:#73BE1E;}
</style>
<g>
	<path class="st0" d="M25.4,159.9c0,0,8.2-27.6,28-54.1l9.4-11.9c0,0,9.4-10.9,16-15.7c0,0,7.2-8.1,14.9-13.1
		c0,0,12.7-9.8,21.1-15.2c0,0,6.1-2.7,8.9-6.5c0,0,2.2,1.6,31.6-15.9c0,0,9.4-8.2,19.5-1.2c0,0,3.9,2.7,24.1,15.5
		c0,0,11.8,9.6,13.5,18.2c0,0,11.8,15-11.5,31.9c0,0-11.6,9.3-25.8-19.8c0,0-4-10.2-6.7-8c0,0-18.9,2.3-40,17.5
		c0,0-11.6,7.6-24.3,25c0,0-14.9,17.9-19.9,25.5c0,0-14.9,19-18.2,26.6c0,0-9.3,17.9-3.2,27c0,0,6.2,10.2,18.4,9
		c0,0,11.1-0.1,17.3,4.2c0,0,26.2,3.6,32.9,4.1c0,0,18.4,0.4,31.2-5.1c0,0,15.6-6,21.7-10.4c0,0,4.4-13-0.1-12.9
		c0,0-8.3,3.8-18.9,1.7c0,0-11.1-0.5-36.1,8.9c0,0-16.1,7.7-29.6-7.3c0,0-9-12.3,1.4-32.9c0,0,9.4-11.4,25.6-10.4
		c0,0,22.8-1.8,36.7-5.6c0,0,8.3-2.2,22.3-4.5c0,0,18.4-2.8,23.4-5.6c0,0,22.2-5.5,29,10c0,0,6.8,17.8,9.7,30.1
		c0,0-9.3,17.9-11.5,24.4c0,0-9.1,48.6-9.1,56.2c0,0-1.4,37.2-3.6,41.6c0,0-22.8,8.2-41.2-2.4c0,0,0.8-51.8-2.6-51.2
		c0,0,13.3-5.5-35.6,9.9l-39.5,4.6c0,0-32.9-1.9-49.1-14.2c0,0-19.5-6.9-28.7-47.3c0,0-1.2-7,0.5-10.3L25.4,159.9z"/>
	<path class="st0" d="M440.7,54c0,0,9.5-1.1,31.7-8.8c0,0,8.9-1.7,10.6-3.3c0,0,28.4-7.2,34.5-6.7c0,0,20-3.4,30-6.7
		c0,0,8.4-0.6,21.9,24.7c0,0,7.4,18.8,5.7,23.2c0,0,0,2.2-8.3,4.4c0,0-33.9,6.7-35.6,7.8c0,0-32.2,4.7-32.8,5.6
		c-1.1,1.6-11.1,1.2-21.6,12.6c0,0-3.9,5.4-3.3,11.9c0,0,20.6,0.9,22.8-0.7c0,0,3.9-2.2,13.3-3.3c0,0,14.5-2.8,16.7-5
		c0,0,7.8-3.3,15.1,8.5c0,0,6.1,2.7,10.1,17.7c0,0,2.9,16.2,1.8,18.3c0,0-9.4,6.5-16.7,7.1c0,0-31.8,0.8-37.3,1.3
		c-2,0.2-20.6,4.5-20.6,6.1c0,0-18.9,1.7-17.8,2.8c0,0-2.8-2.1-2.7,10.8c0,0,3.9,7.5,25.1,10.6c0,0,6.7,3.2,17.8-4.4
		c0,0,3.3-4.9,9.4-4.9c0,0,2.8-0.6,4.5,3.7c0,0,8.4,10.2,9.6,15.6c0,0,10.7,18.8-0.9,32.4c0,0-7.7,13-31.1,13.7
		c0,0-20.6,1.8-36.8-7.8c0,0-11.2-2.6-29.1-18.7c0,0-13.5-17.7-13-30.7c0,0-0.7-25.9,7-41.6c0,0,5.4-21.6,5.4-25.4
		c0,0,3.9-1.1,4.6-14.9c0,0-13.7-11.5-14.9-25.5c0,0-0.1-13.5,4.9-21.1c0,0,7.8-6,10.5-6L440.7,54z"/>
	<path class="st0" d="M624.5,44.7l14.5-0.6c0,0,24.5-5,26.1-6.7l23.9-5.6c0,0,7.8-2.2,12.8-0.1c0,0,8.4-0.6,19,8
		c0,0,7.9,7.5,8.5,18.8c0,0,4.5,11.8-2.6,20.5c0,0-33.4-1.4-30.6,0.2c0,0-10,2.2-20.6,6.1c0,0-11.2-2.1-11.7,0.1
		c0,0-20,5.5-22.8,6.1c0,0-3.9-0.5-5,4.3c0,0,0,5.9-3.8,8.7c0,0-3.3,6-2.7,6.5c0,0-3.3,6,3.9,3.7l18.9-2.8c0,0,17.3-1.7,17.8-2.8
		l15.6-5c0,0,7.2-2.2,7.2,1c0,0,4.5,4.3,10.7,11.3c0,0,6.2,7,4,15.6c0,0,2.8,7.5,0.6,12.9c0,0,2.3,4.3-5.5,5.4
		c0,0-22.2,9.9-31.1,10.5c0,0-8.9,2.8-17.8,3.9c0,0-21.7-0.9-20.6,0.7c0,0-15,3.3-18.9,5l-6.1,0.6c0,0-4.5-0.5-3.9,5.4l1.1,4.8
		c0,0-1.1,3.8,7.8,4.3c0,0,11.7,3.7,19.5,3.1c0,0,12.8-0.1,20-5c0,0,8.3-2.2,8.3-3.8c0,0,6.6-10.3,10,0.5c0,0,4.5,3.2,7.3,9.7
		c0,0,6.2,5.4,9,13.4c0,0,6.2,6.4-1,20.5c0,0,0,5.4-11.1,10.9c0,0-11.1,4.9-31.2,4.5c0,0-21.1,2.8-44.6-4c0,0-7.3-4.8-7.3-3.2
		c0,0-14-4.8-23.5-20.9c0,0-5.1-10.2-6.8-22.1c0,0-1.2-14.6,8.6-42.1c0,0,6.5-19.5,9.3-27c0,0,1-11.3,1.6-12.4c0,0,0-7,3.3-9.2
		c0,0,5-3.8,5.5-10.3c0,0-1.2-17.2,0.4-21.6c0,0,1.1-7.6,11.1-12.5l12.8-4.9L624.5,44.7z"/>
	<path class="st0" d="M1075.5,75.6c-2.1-8.1-14.3-29-14.3-29c-6.8-15.6-23.5-19.8-23.5-19.8c-11.2-2.1-57.4-3.4-57.4-3.4
		c-3.9-0.5-40.1,0.8-40.1,0.8c-18.4,1.7-37.2,13.7-37.2,13.7c-0.5,2.2-17.2,13.1-17.2,13.1c-6.1,6.5-6.1-1.6-6.1-1.6
		c-0.6-5.9-4-9.1-4-9.1C871.7,29,857.7,28,857.7,28c-9.5-2.1-11.6,7.6-11.6,7.6s3.3-0.6,0,1.3c-3.3,1.8-3.8,10.1-3.8,10.1
		c-3.3,0.6-0.9,27.5-0.9,27.5c1.1,0,0.3,36.1,0.3,36.1c0.6,4.3-2.7,18.9-2.7,18.9c-0.5,11.3-7.8,3.8-7.8,3.8
		c-8.4-5.3-12.9-13.4-12.9-13.4c-9.5-11.8-14.1-26.9-14.1-26.9c-1.7-4.3-6.8-22.1-6.8-22.1c-4.6-15.6-5.8-31.2-5.8-31.2
		c-0.1-9.2-3.4-7.5-3.4-7.5c-8.4-6.4-12.3-6.4-12.3-6.4c-13.4-5.3-20.1,0.1-20.1,0.1c-7.2,4.9-9.4,10.3-9.4,10.3
		c-3.9,4.3-3.3,11.9-3.3,11.9c5.1,11.3,4.7,32.3,4.7,32.3l-1.5,30.8c-2.2,9.2-2.7,14-2.7,14l-1.6,5.8l-2.7,11.5
		c-1.1,3.8-8.6,39.4-8.6,39.4c-5.4,23.8-4.2,34-4.2,34c4,21.5,13.5,19.9,13.5,19.9c6.7,2.1,19.5-1.2,19.5-1.2c11.7,1,10.5-6,10.5-6
		l1.9-17.3l3.5-32l5.8-23.6c3.8-11.9,10.5-4.9,10.5-4.9c6.9,2.1,6.2,6.4,6.2,6.4c2.3,5.4,2.3,9.2,2.3,9.2c2.8,2.7,4,7.5,4,7.5
		c7.3,5.3,15.2,17.7,15.2,17.7c5.6,5.4,7.3,16.1,7.3,16.1c1.7-0.5,7,26.6,7,26.6c1.9,8.8,9.9,8.9,9.9,8.9c2.2,2.1,22.3-1.8,22.3-1.8
		c9.5-1.7,7.2-7.1,7.2-7.1c1.7-1.1,1-21.6,1.3-23c0.4-1.6,2.3-41.4,2.3-41.4c0.7-4.5,0.7-39.2,2.3-43.5c0.3-0.7,2.5-42.1,2.5-42.1
		c-1.8-11.3,6.6-5.4,6.6-5.4c2.3,2.7,19.5,2.6,19.5,2.6c7.2,0,28.4-7.7,28.4-7.7c12.2-4.9,7.3,5.9,7.3,5.9c-0.7,5-0.4,16.2-0.4,16.2
		c2.3,10.2-4.4,9.2-4.4,9.2c-3.5,1.3-10.5,6-10.5,6c-17.2,9.3-15.4,26.5-15.4,26.5c1.8,14,17.4,23.6,17.4,23.6
		c7.8,2.6,5.6,7.5,5.6,7.5l-0.9,24.8c-1.1,2.2-1.5,24.8-1.5,24.8c2.9,15.6,7.9,18.8,7.9,18.8c6.7,7.5,25.1,5.2,25.1,5.2
		c9.5,1,6.7-4.9,6.7-4.9c2.2-4.9,3.7-24.3,3.7-24.3c2.2-2.7,3.1-38.9,3.1-38.9c2.2-9.7,3.8-17.8,3.8-17.8c1.6-8.6,6.1-7.1,6.1-7.1
		l8.4-0.1c15-0.1,38.9-11.1,38.9-11.1c23.9-13.1,33.2-33.7,33.2-33.7C1077.1,91.2,1075.5,75.6,1075.5,75.6z M1021.3,81.3
		c-6.1,5.4-9.4,8.7-9.4,8.7c-3.3,8.1-8.7,4.7-8.7,4.7c-6.5,0.4-10.8,2.4-10.8,2.4c-6.7,4.9-7.8-2.1-7.8-2.1
		c-0.6-2.1-2.3-9.2-2.3-9.2c1.7-2.2-0.7-13.5-0.7-13.5c-3.4-11.8,4.4-3.8,4.4-3.8c3.3,1.1,12.8,2.6,12.8,2.6c0.5-1.6,19.5,2,19.5,2
		C1028.5,74.3,1021.3,81.3,1021.3,81.3z"/>
	<path class="st0" d="M1051.9,153.4c0,0,6.5-24.3,24.7-50.3c0,0,15.4-26,16-29.2c0,0,7.8-21.5,6.9-22.9c0,0,2.4-6.8,12.4-9.6
		l32.3-6.7c0,0,27.2-7.2,31.2-6.7c0,0,16.7-4.4,27.8-7.2c0,0,7.8-3.3,11.7-3.3c0,0,5.5-3.8,9.5,3.2c0,0,3.3,1.1,11.2,16.1
		c0,0,3.4,10.2,3.4,14.5l2.3,6.5c0,0,5.6,6.4-6,10.8c0,0-9.4,7.6-23.9,10.4l-37.8,6.2c0,0-22.8,2.3-22.3,3.4c0,0-19.5,5.5-25.5,12.6
		c0,0-10.5,8.2-10.5,9.8c0,0-4.4,8.7,5.6,8.6c0,0,8.9,3.2,24.5-1.2c0,0,17.2-3.4,22.8-6.6c0,0,10.6-2.2,15.6-5.5c0,0,8.9-6,11.2,3.2
		c0,0,9,15,9.1,21.5c0,0,6.7,4.3,0.7,16.2c0,0-4.9,12.4-23.9,14.7c0,0-10,4.4-33.9,5.1c0,0-35.6,0.4-38.4,1.3
		c-3.3,1.1-8.4-0.5-16.1,9.3c0,0-5.5,3.3,1.7,10.2c0,0,3.9,1.6,4.5,4.8c0,0,15.6-0.6,21.2-2.3c0,0,18.4-1.7,31.1-8.8
		c0,0,17.4-8.1,19.5,3.6c0,0,4.5,5.9,6.2,12.9c0,0,5.7,14.5-9.2,31.9c0,0-12.7,14.1-30,15.8c0,0-12.3,0.6-17.3-1.5
		c0,0-46.8,0.3-67.1-34.6c0,0-5.1-16.1-4.6-24.8l0.4-18.9L1051.9,153.4z"/>
	<path class="st0" d="M1722.5,73.9l0-4.9c-0.6-14-4.6-18.8-4.6-18.8c-1.2-9.2-8.5-17.7-8.5-17.7c0-4.9-7.8-3.7-7.8-3.7l-18.4,2.3
		c-4.5,0-37.8,5.7-37.8,5.7l-44.5,6.2c-23.9,4.5-28.4,7.2-28.4,7.2c-7.2,1.7-17.8,8.8-17.8,8.8c-5.6,2.2-8.3,7.1-8.3,7.1
		c0.6,6.5-3.8,14.6-3.8,14.6l-4.8,24.3c-3.3,11.4-5.4,25.9-5.4,25.9l-9.2,39.4c0.6,9.7-6.1,1.7-6.1,1.7l-5.6-5.9
		c-2.3-5.4-8.3,1.7-8.3,1.7c-5,2.7-16.6,10.4-16.6,10.4c-12.2,7.1-21.7,2.3-21.7,2.3c-12.8-1.5-22.9-9.5-22.9-9.5
		c-12.9-8-35.2-17.6-35.2-17.6c-11.7-2.1-6.7-9.1-6.7-9.1c-0.1-8.1,6.5-21.1,6.5-21.1c14.9-21.1,28.2-28.8,28.2-28.8
		c7.2-4.9,23.3-10.4,23.3-10.4c16.6-9.8,12.9,6.4,12.9,6.4c-1.1,5.4,3.5,22.6,3.5,22.6c2.9,17.2,12.4,18.3,12.4,18.3
		c11.7,3.2,20.6-6.1,20.6-6.1c9.5-2.2,12.2-15.2,12.2-15.2c5.5-7,3.7-27,3.7-27c0.5-13-6.3-22.6-6.3-22.6c-2.3-11.9-14-16.6-14-16.6
		c-8.4-2.6-29-3-29-3c-3.9-0.5-16.7,1.7-16.7,1.7c-8.3,1.7-26.1,8.8-26.1,8.8c-22.2,7.2-48.3,29.5-48.3,29.5
		c-3.3,2.2-21.5,26.6-21.5,26.6c-6,11.9-5.6,1.1-5.6,1.1c-0.6-2.2-2.9-13.5-2.9-13.5c2.2-10.3-5.2-28.6-5.2-28.6
		c-4-17.8-11.9-25.8-11.9-25.8c-4.5-9.1-9.5-11.3-9.5-11.3c-21.3-19.3-37.3,6.2-37.3,6.2l-8.3,10.8c-6.1,8.7-9.9,16.2-9.9,16.2
		c0,2.7-12.1,18.4-12.1,18.4c-6,13.5-8.3,13.5-8.3,13.5c-6.6,15.1-15.4,26.5-15.4,26.5c-2.8,1.6-10.5,10.9-10.5,10.9l-1.1,7.6
		c-2.2,9.2-10.9,29.7-10.9,29.7c-5.5,7.6-11,20.6-11,20.6c-4.4,8.1-7.7,18.9-7.7,18.9c0.7,15.1,11.8,18.3,11.8,18.3
		c1.1,0.5,16.2,10.1,16.2,10.1c1.7,0,13.2-20,13.2-20c4.4-8.7,19.3-31.4,19.3-31.4c2.8-5.4,6.7-4.4,6.7-4.4l13.4-0.6
		c3.3-1.1,28.4-2.9,28.4-2.9c7.8-3.8,7.3,3.2,7.3,3.2l2.4,27c1.8,25.9,10.2,30.7,10.2,30.7c20.1,5.8,25-3.9,25-3.9
		c7.2-8.1,5.4-23.8,5.4-23.8l-0.3-37.8c1.1-7.6,6.1-3.3,6.1-3.3l6.7,8l19.6,22c9.6,12.3,35.3,24.6,35.3,24.6
		c20.1,12.3,39.1,13.8,39.1,13.8c33.5,5.7,47.3-11.6,47.3-11.6c7.7-6.5,14.9-21.1,14.9-21.1c2.7-8.6,6.7-1.1,6.7-1.1
		c2.2-0.6,13.5,13.4,13.5,13.4c11.8,12.9,25.7,12.8,25.7,12.8c5.6,1.6,39,1.9,39,1.9l30-6.7c10-0.6,11.1-4.9,11.1-4.9l8.8-14.6
		c1.7-1.6,0.4-16.2,0.4-16.2c2.7-8.7-6.7-7.5-6.7-7.5c-8.9-3.2-21.2-1.5-21.2-1.5c-3.3-0.5-22.2,5.5-22.2,5.5
		c-1.1,1.6-21.7,3.4-21.7,3.4l-19.5-5.3l-1.2-14c0.5-10.3,11.7-3.9,11.7-3.9c2.8-0.6,29,2.5,29,2.5c0.6,2.2,38.4,0.8,38.4,0.8
		c6.7,0.5,20-6.1,20-6.1c6.1,1.6,6.1-5.4,6.1-5.4l-1.2-15.6c-2.4-19.9-10.8-26.9-10.8-26.9c-1.7-7.5-9.5-3.7-9.5-3.7
		c-2.2-1.1-34,3.5-34,3.5l-22.8,0.2c-8.9,3.3-6.2-6.4-6.2-6.4c3.3-8.7,9.4-13,9.4-13c13.8-11.4,40-15.4,40-15.4l33.9-4.5l49.6,0.2
		C1726.5,76.5,1722.5,73.9,1722.5,73.9z M1307.9,116.1l-5,1.6c-4.5,0.6-11.1,2.2-11.1,2.2c-5,2.2-2.8-5.9-2.8-5.9
		c1.1-1.1,3.9-6.3,3.9-6.3c2.8-4.2,4.4-7.8,4.4-7.8c1.1-3.8,1.6-4.9,1.6-4.9c-0.6-3.8,5.5-9.2,5.5-9.2c2.2-5.9,5.4,1,5.4,1l1.7,8.8
		l-0.3,15.5C1312.3,117.1,1307.9,116.1,1307.9,116.1z"/>
	<path class="st0" d="M401.5,191.3c-8.5-16.1-39.7-29.4-39.7-29.4c3.8-8.7,18.7-34.7,18.7-34.7c7.2-11.9,7.7-16.2,7.7-16.2
		c1.6-9.2-1.7-11.3-1.7-11.3c-0.7-19.4-6.9-37.7-6.9-37.7c-4-11.3-11.3-18.8-11.3-18.8c-7.9-11.3-22.4-13.3-22.4-13.3l-11.7-3.2
		c-5.4-1.4-8.9-1-8.9-1c-2.2,2.2-27.8,1.8-27.8,1.8l-9.5,2.8c-20.5,11.5-17.6,29.2-17.6,29.2c-1,12.4,13,25.8,13,25.8
		c1.1,2.1-4.3,27-4.3,27c-3.3,4.3-8.8,11.9-8.8,11.9l-6.7,0.1c-2.2,1.6-10,9.2-10,9.2l-0.1,7.7c2.2-0.7,3.6,12.7,3.6,12.7
		c3.4,2.1,2.4,31.8,2.4,31.8c-0.4,25.9,3,33.4,3,33.4c4.6,19.4,18.6,29.5,18.6,29.5l12.3-0.1c12.7-12.5,7.6-32.4,7.6-32.4
		c-1.1-3.8-0.8-31.8-0.8-31.8c3.3-3.3,9.4-4.9,9.4-4.9c1.7-0.6,18.5,16.1,18.5,16.1c8.4,9.7,42.6,40.7,42.6,40.7
		c2.2,1.1,19,2.6,19,2.6c5-0.6,7.2-8.7,7.2-8.7c6.6-8.7,11.1-9.8,11.1-9.8C416,208.3,401.5,191.3,401.5,191.3z M344.6,93
		c-0.5,7.6-6,11.4-6,11.4c-3.9,4.3-8.9,5.5-8.9,5.5l-3.9,3.8c-6.1,9.2-5.6-2.1-5.6-2.1l0.5-3.8c1.1-3.8,2.6-20.5,2.6-20.5
		c3.3-2.7,1-10.8,1-10.8c0.5-7.6,4.4-3.3,4.4-3.3c2.7,0.9,4.4,1.7,5.6,2.3c-0.3-0.3-0.2-0.4,0.4,0.2c1.2,0.7,1.7,1.2,1.9,1.6
		c3.3,2.6,8.9,6.6,8.9,6.6L344.6,93z"/>
</g>
</svg>
